<mxfile host="app.diagrams.net" agent="Mozilla/5.0 (Macintosh; Intel Mac OS X 10.15; rv:135.0) Gecko/20100101 Firefox/135.0" version="26.0.11">
  <diagram name="Page-1" id="qKKBP1qxXHj9X3qdVaCe">
    <mxGraphModel dx="1026" dy="574" grid="1" gridSize="10" guides="1" tooltips="1" connect="1" arrows="1" fold="1" page="1" pageScale="1" pageWidth="850" pageHeight="1100" math="0" shadow="0">
      <root>
        <mxCell id="0" />
        <mxCell id="1" parent="0" />
        <mxCell id="O7KahhrIa4pQh0wzXKCb-1" value="APAC EC and AUL GTT Organisations" style="swimlane;html=1;startSize=20;horizontal=1;containerType=tree;glass=0;" parent="1" vertex="1">
          <mxGeometry x="60" y="30" width="1963" height="1670" as="geometry">
            <mxRectangle x="40" y="40" width="90" height="30" as="alternateBounds" />
          </mxGeometry>
        </mxCell>
        <UserObject label="John Correia&lt;br&gt;&lt;i style=&quot;color: gray&quot;&gt;VP Delivery/Ops&lt;/i&gt;&lt;br&gt;&lt;a href=&quot;mailto:jcorreia@altair.com&quot;&gt;Email&lt;/a&gt;" name="John Correia" position="VP Delivery/Ops" location="Home Office (FL)" email="jcorreia@altair.com" placeholders="1" link="" id="O7KahhrIa4pQh0wzXKCb-2">
          <mxCell style="label;image=https://cdn3.iconfinder.com/data/icons/user-avatars-1/512/users-2-128.png;whiteSpace=wrap;html=1;rounded=0;glass=0;treeMoving=1;treeFolding=1;" parent="O7KahhrIa4pQh0wzXKCb-1" vertex="1">
            <mxGeometry x="1047" y="40" width="180" height="80" as="geometry" />
          </mxCell>
        </UserObject>
        <mxCell id="O7KahhrIa4pQh0wzXKCb-3" style="edgeStyle=orthogonalEdgeStyle;rounded=0;orthogonalLoop=1;jettySize=auto;html=1;fillColor=#ffe6cc;strokeColor=#d79b00;dashed=1;" parent="O7KahhrIa4pQh0wzXKCb-1" source="O7KahhrIa4pQh0wzXKCb-5" target="O7KahhrIa4pQh0wzXKCb-6" edge="1">
          <mxGeometry relative="1" as="geometry" />
        </mxCell>
        <mxCell id="O7KahhrIa4pQh0wzXKCb-4" style="edgeStyle=orthogonalEdgeStyle;rounded=0;orthogonalLoop=1;jettySize=auto;html=1;entryX=0.5;entryY=1;entryDx=0;entryDy=0;" parent="O7KahhrIa4pQh0wzXKCb-1" source="O7KahhrIa4pQh0wzXKCb-5" target="O7KahhrIa4pQh0wzXKCb-2" edge="1">
          <mxGeometry relative="1" as="geometry">
            <Array as="points">
              <mxPoint x="1044" y="150" />
              <mxPoint x="1137" y="150" />
            </Array>
          </mxGeometry>
        </mxCell>
        <UserObject label="Manjunath Doddam&lt;br&gt;&lt;i style=&quot;color: gray&quot;&gt;Senior Technical&amp;nbsp;&lt;/i&gt;&lt;font color=&quot;#808080&quot;&gt;&lt;span style=&quot;caret-color: rgb(128, 128, 128);&quot;&gt;&lt;i&gt;Specialist&lt;/i&gt;&lt;/span&gt;&lt;/font&gt;&lt;div&gt;&lt;font color=&quot;#808080&quot;&gt;&lt;span style=&quot;caret-color: rgb(128, 128, 128);&quot;&gt;&lt;i&gt;APAC - GTT &amp;amp; ATT&lt;br&gt;&lt;/i&gt;&lt;/span&gt;&lt;/font&gt;&lt;a href=&quot;mailto:balar@altair.com&quot;&gt;Email&lt;/a&gt;&lt;/div&gt;" name="Balamurugan R" position="Director, EC" location="Bangalore, India" email="balar@altair.com" placeholders="1" link="https://www.draw.io" id="O7KahhrIa4pQh0wzXKCb-5">
          <mxCell style="label;image=https://cdn3.iconfinder.com/data/icons/user-avatars-1/512/users-2-128.png;whiteSpace=wrap;html=1;rounded=0;glass=0;points=[[0,0,0,0,0],[0,0.25,0,0,0],[0,0.5,0,0,0],[0,0.75,0,0,0],[0,1,0,0,0],[0.25,0,0,0,0],[0.25,1,0,0,0],[0.5,0,0,0,0],[0.5,1,0,0,0],[0.64,1,0,0,0],[0.75,0,0,0,0],[0.75,1,0,0,0],[0.87,1,0,0,0],[1,0,0,0,0],[1,0.25,0,0,0],[1,0.5,0,0,0],[1,0.75,0,0,0],[1,1,0,0,0]];" parent="O7KahhrIa4pQh0wzXKCb-1" vertex="1">
            <mxGeometry x="930" y="200" width="229" height="80" as="geometry" />
          </mxCell>
        </UserObject>
        <UserObject label="Satish Kanagala&lt;br&gt;&lt;i style=&quot;color: gray&quot;&gt;VP – EC Sales&lt;/i&gt;&lt;br&gt;&lt;a href=&quot;mailto:satisk@altair.com&quot;&gt;Email&lt;/a&gt;" name="Satish Kanagala" position="VP – EC Sales" location="Pune, India" email="satisk@altair.com" placeholders="1" link="" id="O7KahhrIa4pQh0wzXKCb-6">
          <mxCell style="label;image=https://cdn3.iconfinder.com/data/icons/user-avatars-1/512/users-2-128.png;whiteSpace=wrap;html=1;rounded=0;glass=0;treeMoving=1;treeFolding=1;" parent="O7KahhrIa4pQh0wzXKCb-1" vertex="1">
            <mxGeometry x="740" y="40" width="190" height="80" as="geometry" />
          </mxCell>
        </UserObject>
        <mxCell id="O7KahhrIa4pQh0wzXKCb-7" value="ANZ" style="swimlane;html=1;startSize=20;horizontal=1;containerType=tree;glass=0;" parent="O7KahhrIa4pQh0wzXKCb-1" vertex="1">
          <mxGeometry x="42" y="350" width="240" height="360" as="geometry">
            <mxRectangle x="10" y="280" width="90" height="30" as="alternateBounds" />
          </mxGeometry>
        </mxCell>
        <UserObject label="Vishwanath Rao&lt;br&gt;&lt;i style=&quot;color: gray&quot;&gt;Managing Director&lt;/i&gt;&lt;br&gt;&lt;a href=&quot;mailto:srirang@altair.com&quot;&gt;Email&lt;/a&gt;" name="Srirangam R. Srirangarajan" position="Regional Managing Director" location="KL, Malaysia" email="srirang@altair.com" placeholders="1" id="O7KahhrIa4pQh0wzXKCb-8">
          <mxCell style="label;image=https://cdn3.iconfinder.com/data/icons/user-avatars-1/512/users-2-128.png;whiteSpace=wrap;html=1;rounded=0;glass=0;fillColor=#dae8fc;strokeColor=#6c8ebf;" parent="O7KahhrIa4pQh0wzXKCb-7" vertex="1">
            <mxGeometry x="32" y="40" width="178" height="80" as="geometry" />
          </mxCell>
        </UserObject>
        <mxCell id="O7KahhrIa4pQh0wzXKCb-9" style="edgeStyle=orthogonalEdgeStyle;rounded=0;orthogonalLoop=1;jettySize=auto;html=1;entryX=0.5;entryY=1;entryDx=0;entryDy=0;fillColor=#ffe6cc;strokeColor=#d79b00;dashed=1;" parent="O7KahhrIa4pQh0wzXKCb-7" source="O7KahhrIa4pQh0wzXKCb-10" target="O7KahhrIa4pQh0wzXKCb-8" edge="1">
          <mxGeometry relative="1" as="geometry" />
        </mxCell>
        <UserObject label="Kumar Vaibhav Pradipkumar Saxena&lt;br&gt;&lt;i style=&quot;color: gray&quot;&gt;PBS Works Application Engineer&lt;/i&gt;&lt;br&gt;&lt;a href=&quot;mailto:kumarv@altair.com&quot;&gt;Email&lt;/a&gt;" name="Kumar Vaibhav Pradipkumar Saxena" position="PBS Works Application Engineer" location="Melbourne, Australia" email="kumarv@altair.com" placeholders="1" link="https://www.draw.io" id="O7KahhrIa4pQh0wzXKCb-10">
          <mxCell style="label;image=https://cdn3.iconfinder.com/data/icons/user-avatars-1/512/users-2-128.png;whiteSpace=wrap;html=1;rounded=0;glass=0;" parent="O7KahhrIa4pQh0wzXKCb-7" vertex="1">
            <mxGeometry x="32" y="150" width="178" height="80" as="geometry" />
          </mxCell>
        </UserObject>
        <mxCell id="O7KahhrIa4pQh0wzXKCb-11" value="ASEAN" style="swimlane;html=1;startSize=20;horizontal=1;containerType=tree;glass=0;" parent="O7KahhrIa4pQh0wzXKCb-1" vertex="1">
          <mxGeometry x="302" y="350" width="240" height="360" as="geometry">
            <mxRectangle x="302" y="280" width="90" height="30" as="alternateBounds" />
          </mxGeometry>
        </mxCell>
        <UserObject label="Ayush Mathur&lt;br&gt;&lt;i style=&quot;color: gray&quot;&gt;HPC Systems Engineer&lt;/i&gt;&lt;br&gt;&lt;a href=&quot;mailto:amathur@altair.com&quot;&gt;Email&lt;/a&gt;" name="Ayush Mathur" position="HPC Systems Engineer" location="Singapore" email="amathur@altair.com" placeholders="1" link="https://www.draw.io" id="O7KahhrIa4pQh0wzXKCb-12">
          <mxCell style="label;image=https://cdn3.iconfinder.com/data/icons/user-avatars-1/512/users-2-128.png;whiteSpace=wrap;html=1;rounded=0;glass=0;" parent="O7KahhrIa4pQh0wzXKCb-11" vertex="1">
            <mxGeometry x="31" y="140" width="178" height="80" as="geometry" />
          </mxCell>
        </UserObject>
        <UserObject label="Mukesh Sheoran&lt;br&gt;&lt;i style=&quot;color: gray&quot;&gt;HPC Specialist&lt;/i&gt;&lt;br&gt;&lt;a href=&quot;mailto:mukeshs@altair.com&quot;&gt;Email&lt;/a&gt;" name="Mukesh Sheoran" position="HPC Specialist" location="KL, Malaysia" email="mukeshs@altair.com" placeholders="1" link="https://www.draw.io" id="O7KahhrIa4pQh0wzXKCb-13">
          <mxCell style="label;image=https://cdn3.iconfinder.com/data/icons/user-avatars-1/512/users-2-128.png;whiteSpace=wrap;html=1;rounded=0;glass=0;" parent="O7KahhrIa4pQh0wzXKCb-11" vertex="1">
            <mxGeometry x="31" y="240" width="178" height="80" as="geometry" />
          </mxCell>
        </UserObject>
        <mxCell id="O7KahhrIa4pQh0wzXKCb-14" value="China" style="swimlane;html=1;startSize=20;horizontal=1;containerType=tree;glass=0;" parent="O7KahhrIa4pQh0wzXKCb-1" vertex="1">
          <mxGeometry x="552" y="350" width="240" height="840" as="geometry">
            <mxRectangle x="10" y="280" width="90" height="30" as="alternateBounds" />
          </mxGeometry>
        </mxCell>
        <UserObject label="Yuan Liu&lt;br&gt;&lt;i style=&quot;color: gray&quot;&gt;Regional Manager&lt;/i&gt;&lt;br&gt;&lt;a href=&quot;mailto:liuyuan@altair.com&quot;&gt;Email&lt;/a&gt;" name="Yuan Liu" position="Regional Manager" location="Shanghai, China" email="liuyuan@altair.com" placeholders="1" link="https://www.draw.io" id="O7KahhrIa4pQh0wzXKCb-15">
          <mxCell style="label;image=https://cdn3.iconfinder.com/data/icons/user-avatars-1/512/users-2-128.png;whiteSpace=wrap;html=1;rounded=0;glass=0;fillColor=#dae8fc;strokeColor=#6c8ebf;" parent="O7KahhrIa4pQh0wzXKCb-14" vertex="1">
            <mxGeometry x="31" y="40" width="178" height="80" as="geometry" />
          </mxCell>
        </UserObject>
        <UserObject label="Yihua Wang&lt;br&gt;&lt;i style=&quot;color: gray&quot;&gt;Technical Director - EC&lt;/i&gt;&lt;br&gt;&lt;a href=&quot;mailto:wyh@altair.com&quot;&gt;Email&lt;/a&gt;" name="Yihua Wang" position="Technical Director - EC" location="Shanghai, China" email="wyh@altair.com" placeholders="1" link="https://www.draw.io" id="O7KahhrIa4pQh0wzXKCb-16">
          <mxCell style="label;image=https://cdn3.iconfinder.com/data/icons/user-avatars-1/512/users-2-128.png;whiteSpace=wrap;html=1;rounded=0;glass=0;" parent="O7KahhrIa4pQh0wzXKCb-14" vertex="1">
            <mxGeometry x="31" y="140" width="178" height="80" as="geometry" />
          </mxCell>
        </UserObject>
        <mxCell id="O7KahhrIa4pQh0wzXKCb-17" style="edgeStyle=orthogonalEdgeStyle;rounded=0;orthogonalLoop=1;jettySize=auto;html=1;entryX=1;entryY=0.75;entryDx=0;entryDy=0;" parent="O7KahhrIa4pQh0wzXKCb-14" source="O7KahhrIa4pQh0wzXKCb-18" target="O7KahhrIa4pQh0wzXKCb-16" edge="1">
          <mxGeometry relative="1" as="geometry">
            <Array as="points">
              <mxPoint x="229" y="280" />
              <mxPoint x="229" y="200" />
            </Array>
          </mxGeometry>
        </mxCell>
        <UserObject label="James Zhang&lt;br&gt;&lt;i style=&quot;color: gray&quot;&gt;PBS Techincal Specialist&lt;/i&gt;&lt;br&gt;&lt;a href=&quot;mailto:zsj@altair.com&quot;&gt;Email&lt;/a&gt;" name="James Zhang" position="PBS Techincal Specialist" location="Shangai, China" email="zsj@altair.com" placeholders="1" link="https://www.draw.io" id="O7KahhrIa4pQh0wzXKCb-18">
          <mxCell style="label;image=https://cdn3.iconfinder.com/data/icons/user-avatars-1/512/users-2-128.png;whiteSpace=wrap;html=1;rounded=0;glass=0;" parent="O7KahhrIa4pQh0wzXKCb-14" vertex="1">
            <mxGeometry x="31" y="240" width="178" height="80" as="geometry" />
          </mxCell>
        </UserObject>
        <mxCell id="O7KahhrIa4pQh0wzXKCb-19" style="edgeStyle=orthogonalEdgeStyle;rounded=0;orthogonalLoop=1;jettySize=auto;html=1;entryX=1;entryY=0.75;entryDx=0;entryDy=0;" parent="O7KahhrIa4pQh0wzXKCb-14" source="O7KahhrIa4pQh0wzXKCb-20" target="O7KahhrIa4pQh0wzXKCb-16" edge="1">
          <mxGeometry relative="1" as="geometry">
            <Array as="points">
              <mxPoint x="229" y="370" />
              <mxPoint x="229" y="200" />
            </Array>
          </mxGeometry>
        </mxCell>
        <UserObject label="Wei Huang&lt;br&gt;&lt;i style=&quot;color: gray&quot;&gt;PBS Senior Application Engineer&lt;/i&gt;&lt;br&gt;&lt;a href=&quot;mailto:weihuang@altair.com&quot;&gt;Email&lt;/a&gt;" name="Wei Huang" position="PBS Senior Application Engineer" location="Beijing, china" email="weihuang@altair.com" placeholders="1" link="https://www.draw.io" id="O7KahhrIa4pQh0wzXKCb-20">
          <mxCell style="label;image=https://cdn3.iconfinder.com/data/icons/user-avatars-1/512/users-2-128.png;whiteSpace=wrap;html=1;rounded=0;glass=0;" parent="O7KahhrIa4pQh0wzXKCb-14" vertex="1">
            <mxGeometry x="31" y="340" width="178" height="80" as="geometry" />
          </mxCell>
        </UserObject>
        <mxCell id="O7KahhrIa4pQh0wzXKCb-21" style="edgeStyle=orthogonalEdgeStyle;rounded=0;orthogonalLoop=1;jettySize=auto;html=1;entryX=1;entryY=0.75;entryDx=0;entryDy=0;" parent="O7KahhrIa4pQh0wzXKCb-14" source="O7KahhrIa4pQh0wzXKCb-22" target="O7KahhrIa4pQh0wzXKCb-16" edge="1">
          <mxGeometry relative="1" as="geometry">
            <Array as="points">
              <mxPoint x="229" y="480" />
              <mxPoint x="229" y="200" />
            </Array>
          </mxGeometry>
        </mxCell>
        <UserObject label="Wenli Chen&lt;br&gt;&lt;i style=&quot;color: gray&quot;&gt;PBS Application Engineer&lt;/i&gt;&lt;br&gt;&lt;a href=&quot;mailto:wlchen@altair.com&quot;&gt;Email&lt;/a&gt;" name="Wenli Chen" position="PBS Application Engineer" location="Shanghai, China" email="wlchen@altair.com" placeholders="1" link="https://www.draw.io" id="O7KahhrIa4pQh0wzXKCb-22">
          <mxCell style="label;image=https://cdn3.iconfinder.com/data/icons/user-avatars-1/512/users-2-128.png;whiteSpace=wrap;html=1;rounded=0;glass=0;" parent="O7KahhrIa4pQh0wzXKCb-14" vertex="1">
            <mxGeometry x="31" y="441" width="178" height="80" as="geometry" />
          </mxCell>
        </UserObject>
        <mxCell id="O7KahhrIa4pQh0wzXKCb-23" style="edgeStyle=orthogonalEdgeStyle;rounded=0;orthogonalLoop=1;jettySize=auto;html=1;entryX=1;entryY=0.75;entryDx=0;entryDy=0;" parent="O7KahhrIa4pQh0wzXKCb-14" source="O7KahhrIa4pQh0wzXKCb-24" target="O7KahhrIa4pQh0wzXKCb-16" edge="1">
          <mxGeometry relative="1" as="geometry">
            <Array as="points">
              <mxPoint x="229" y="580" />
              <mxPoint x="229" y="200" />
            </Array>
          </mxGeometry>
        </mxCell>
        <UserObject label="Yapeng Wang&lt;br&gt;&lt;i style=&quot;color: gray&quot;&gt;PBS Application Engineer&lt;/i&gt;&lt;br&gt;&lt;a href=&quot;mailto:yapeng@altair.com&quot;&gt;Email&lt;/a&gt;" name="Yapeng Wang" position="PBS Application Engineer" location="Shanghai, China" email="yapeng@altair.com" placeholders="1" link="https://www.draw.io" id="O7KahhrIa4pQh0wzXKCb-24">
          <mxCell style="label;image=https://cdn3.iconfinder.com/data/icons/user-avatars-1/512/users-2-128.png;whiteSpace=wrap;html=1;rounded=0;glass=0;" parent="O7KahhrIa4pQh0wzXKCb-14" vertex="1">
            <mxGeometry x="31" y="541" width="178" height="80" as="geometry" />
          </mxCell>
        </UserObject>
        <mxCell id="O7KahhrIa4pQh0wzXKCb-25" style="edgeStyle=orthogonalEdgeStyle;rounded=0;orthogonalLoop=1;jettySize=auto;html=1;entryX=1;entryY=0.75;entryDx=0;entryDy=0;" parent="O7KahhrIa4pQh0wzXKCb-14" source="O7KahhrIa4pQh0wzXKCb-26" target="O7KahhrIa4pQh0wzXKCb-16" edge="1">
          <mxGeometry relative="1" as="geometry">
            <Array as="points">
              <mxPoint x="229" y="670" />
              <mxPoint x="229" y="200" />
            </Array>
          </mxGeometry>
        </mxCell>
        <UserObject label="Ye Wang&lt;br&gt;&lt;i style=&quot;color: gray&quot;&gt;PBS Application Engineer&lt;/i&gt;&lt;br&gt;&lt;a href=&quot;mailto:yewang@altair.com&quot;&gt;Email&lt;/a&gt;" name="Ye Wang" position="PBS Application Engineer" location="Beijing, China" email="yewang@altair.com" placeholders="1" link="https://www.draw.io" id="O7KahhrIa4pQh0wzXKCb-26">
          <mxCell style="label;image=https://cdn3.iconfinder.com/data/icons/user-avatars-1/512/users-2-128.png;whiteSpace=wrap;html=1;rounded=0;glass=0;" parent="O7KahhrIa4pQh0wzXKCb-14" vertex="1">
            <mxGeometry x="31" y="641" width="178" height="80" as="geometry" />
          </mxCell>
        </UserObject>
        <mxCell id="O7KahhrIa4pQh0wzXKCb-27" style="edgeStyle=orthogonalEdgeStyle;rounded=0;orthogonalLoop=1;jettySize=auto;html=1;entryX=1;entryY=0.75;entryDx=0;entryDy=0;" parent="O7KahhrIa4pQh0wzXKCb-14" source="O7KahhrIa4pQh0wzXKCb-28" target="O7KahhrIa4pQh0wzXKCb-16" edge="1">
          <mxGeometry relative="1" as="geometry">
            <Array as="points">
              <mxPoint x="229" y="790" />
              <mxPoint x="229" y="200" />
            </Array>
          </mxGeometry>
        </mxCell>
        <UserObject label="Zhenyu Deng&lt;br&gt;&lt;i style=&quot;color: gray&quot;&gt;Intern&lt;/i&gt;&lt;br&gt;&lt;a href=&quot;mailto:zydeng@altair.com&quot;&gt;Email&lt;/a&gt;" name="Zhenyu Deng" position="Intern" location="Shanghai, China" email="zydeng@altair.com" placeholders="1" link="https://www.draw.io" id="O7KahhrIa4pQh0wzXKCb-28">
          <mxCell style="label;image=https://cdn3.iconfinder.com/data/icons/user-avatars-1/512/users-2-128.png;whiteSpace=wrap;html=1;rounded=0;glass=0;" parent="O7KahhrIa4pQh0wzXKCb-14" vertex="1">
            <mxGeometry x="31" y="741" width="178" height="80" as="geometry" />
          </mxCell>
        </UserObject>
        <mxCell id="O7KahhrIa4pQh0wzXKCb-29" style="edgeStyle=orthogonalEdgeStyle;rounded=0;orthogonalLoop=1;jettySize=auto;html=1;entryX=-0.002;entryY=0.381;entryDx=0;entryDy=0;entryPerimeter=0;" parent="O7KahhrIa4pQh0wzXKCb-14" source="O7KahhrIa4pQh0wzXKCb-16" target="O7KahhrIa4pQh0wzXKCb-15" edge="1">
          <mxGeometry relative="1" as="geometry">
            <Array as="points">
              <mxPoint x="11" y="180" />
              <mxPoint x="11" y="70" />
            </Array>
          </mxGeometry>
        </mxCell>
        <mxCell id="O7KahhrIa4pQh0wzXKCb-30" value="India" style="swimlane;html=1;startSize=20;horizontal=1;containerType=tree;glass=0;" parent="O7KahhrIa4pQh0wzXKCb-1" vertex="1">
          <mxGeometry x="822" y="350" width="240" height="1290" as="geometry">
            <mxRectangle x="822" y="280" width="90" height="30" as="alternateBounds" />
          </mxGeometry>
        </mxCell>
        <UserObject label="Manoj Soni&lt;br&gt;&lt;i style=&quot;color: gray&quot;&gt;Technical Manager&lt;/i&gt;&lt;br&gt;&lt;a href=&quot;mailto:manojs@altair.com&quot;&gt;Email&lt;/a&gt;" name="Manoj Soni" position="Technical Manager" location="New Delhi, India" email="manojs@altair.com" placeholders="1" link="https://www.draw.io" id="O7KahhrIa4pQh0wzXKCb-31">
          <mxCell style="label;image=https://cdn3.iconfinder.com/data/icons/user-avatars-1/512/users-2-128.png;whiteSpace=wrap;html=1;rounded=0;glass=0;" parent="O7KahhrIa4pQh0wzXKCb-30" vertex="1">
            <mxGeometry x="31" y="40" width="178" height="80" as="geometry" />
          </mxCell>
        </UserObject>
        <UserObject label="Vinesh Nellaiappan&lt;br&gt;&lt;i style=&quot;color: gray&quot;&gt;Technical Manager&lt;/i&gt;&lt;br&gt;&lt;a href=&quot;mailto:vineshn@altair.com&quot;&gt;Email&lt;/a&gt;" name="Vinesh Nellaiappan" position="Technical Manager" location="Chennai, India" email="vineshn@altair.com" placeholders="1" link="https://www.draw.io" id="O7KahhrIa4pQh0wzXKCb-32">
          <mxCell style="label;image=https://cdn3.iconfinder.com/data/icons/user-avatars-1/512/users-2-128.png;whiteSpace=wrap;html=1;rounded=0;glass=0;" parent="O7KahhrIa4pQh0wzXKCb-30" vertex="1">
            <mxGeometry x="31" y="140" width="178" height="80" as="geometry" />
          </mxCell>
        </UserObject>
        <UserObject label="Syed Mohammed Syed Abidi&lt;br&gt;&lt;i style=&quot;color: gray&quot;&gt;HPC consultant&lt;/i&gt;&lt;br&gt;&lt;a href=&quot;mailto:syedab@altair.com&quot;&gt;Email&lt;/a&gt;" name="Syed Mohammed Syed Abidi" position="HPC consultant" location="Bangalore, India" email="syedab@altair.com" placeholders="1" link="https://www.draw.io" id="O7KahhrIa4pQh0wzXKCb-33">
          <mxCell style="label;image=https://cdn3.iconfinder.com/data/icons/user-avatars-1/512/users-2-128.png;whiteSpace=wrap;html=1;rounded=0;glass=0;" parent="O7KahhrIa4pQh0wzXKCb-30" vertex="1">
            <mxGeometry x="31" y="520" width="178" height="80" as="geometry" />
          </mxCell>
        </UserObject>
        <UserObject label="S A Zainulabiddin&lt;br&gt;&lt;i style=&quot;color: gray&quot;&gt;Senior HPC Systems Engineer&lt;/i&gt;&lt;br&gt;&lt;a href=&quot;mailto:zainul@altair.com&quot;&gt;Email&lt;/a&gt;" name="S A Zainulabiddin" position="Senior HPC Systems Engineer" location="Bangalore, India" email="zainul@altair.com" placeholders="1" link="https://www.draw.io" id="O7KahhrIa4pQh0wzXKCb-34">
          <mxCell style="label;image=https://cdn3.iconfinder.com/data/icons/user-avatars-1/512/users-2-128.png;whiteSpace=wrap;html=1;rounded=0;glass=0;" parent="O7KahhrIa4pQh0wzXKCb-30" vertex="1">
            <mxGeometry x="31" y="430" width="178" height="80" as="geometry" />
          </mxCell>
        </UserObject>
        <mxCell id="O7KahhrIa4pQh0wzXKCb-35" style="edgeStyle=orthogonalEdgeStyle;rounded=0;orthogonalLoop=1;jettySize=auto;html=1;entryX=0;entryY=0.5;entryDx=0;entryDy=0;" parent="O7KahhrIa4pQh0wzXKCb-30" source="O7KahhrIa4pQh0wzXKCb-36" target="O7KahhrIa4pQh0wzXKCb-32" edge="1">
          <mxGeometry relative="1" as="geometry">
            <Array as="points">
              <mxPoint x="11" y="390" />
              <mxPoint x="11" y="180" />
            </Array>
          </mxGeometry>
        </mxCell>
        <UserObject label="Sindhuja Doolam&lt;br&gt;&lt;i style=&quot;color: gray&quot;&gt;Intern&lt;/i&gt;&lt;br&gt;&lt;a href=&quot;mailto:sindhujad@altair.com&quot;&gt;Email&lt;/a&gt;" name="Sindhuja Doolam" position="Intern" location="Bangalore, India" email="sindhujad@altair.com" placeholders="1" link="https://www.draw.io" id="O7KahhrIa4pQh0wzXKCb-36">
          <mxCell style="label;image=https://cdn3.iconfinder.com/data/icons/user-avatars-1/512/users-2-128.png;whiteSpace=wrap;html=1;rounded=0;glass=0;" parent="O7KahhrIa4pQh0wzXKCb-30" vertex="1">
            <mxGeometry x="31" y="340" width="178" height="80" as="geometry" />
          </mxCell>
        </UserObject>
        <mxCell id="O7KahhrIa4pQh0wzXKCb-37" value="Tech Vertical" style="swimlane;whiteSpace=wrap;html=1;" parent="O7KahhrIa4pQh0wzXKCb-30" vertex="1">
          <mxGeometry x="15" y="740" width="210" height="510" as="geometry">
            <mxRectangle x="15" y="540" width="110" height="30" as="alternateBounds" />
          </mxGeometry>
        </mxCell>
        <UserObject label="Prasanna Chalgeri&lt;br&gt;&lt;i style=&quot;color: gray&quot;&gt;Solutions Architect&lt;/i&gt;&lt;br&gt;&lt;a href=&quot;mailto:prasanc@altair.com&quot;&gt;Email&lt;/a&gt;" name="Prasanna Chalgeri" position="Solutions Architect" location="CA-Sunnyvale" email="prasanc@altair.com" placeholders="1" link="https://www.draw.io" id="O7KahhrIa4pQh0wzXKCb-38">
          <mxCell style="label;image=https://cdn3.iconfinder.com/data/icons/user-avatars-1/512/users-2-128.png;whiteSpace=wrap;html=1;rounded=0;glass=0;fillColor=#f8cecc;strokeColor=#b85450;" parent="O7KahhrIa4pQh0wzXKCb-37" vertex="1">
            <mxGeometry x="11" y="40" width="189" height="80" as="geometry" />
          </mxCell>
        </UserObject>
        <mxCell id="O7KahhrIa4pQh0wzXKCb-39" style="edgeStyle=orthogonalEdgeStyle;rounded=0;orthogonalLoop=1;jettySize=auto;html=1;entryX=0;entryY=0.5;entryDx=0;entryDy=0;" parent="O7KahhrIa4pQh0wzXKCb-37" source="O7KahhrIa4pQh0wzXKCb-40" target="O7KahhrIa4pQh0wzXKCb-38" edge="1">
          <mxGeometry relative="1" as="geometry">
            <Array as="points">
              <mxPoint x="-9" y="264" />
              <mxPoint x="-9" y="80" />
            </Array>
          </mxGeometry>
        </mxCell>
        <UserObject label="Bhavani Kota&lt;br&gt;&lt;i style=&quot;color: gray&quot;&gt;Application Engineer&lt;/i&gt;&lt;br&gt;&lt;a href=&quot;mailto:bhavanik@altair.com&quot;&gt;Email&lt;/a&gt;" name="Bhavani Kota" position="Application Engineer" location="Bangalore, India" email="bhavanik@altair.com" placeholders="1" link="https://www.draw.io" id="O7KahhrIa4pQh0wzXKCb-40">
          <mxCell style="label;image=https://cdn3.iconfinder.com/data/icons/user-avatars-1/512/users-2-128.png;whiteSpace=wrap;html=1;rounded=0;glass=0;" parent="O7KahhrIa4pQh0wzXKCb-37" vertex="1">
            <mxGeometry x="11" y="224" width="189" height="80" as="geometry" />
          </mxCell>
        </UserObject>
        <mxCell id="O7KahhrIa4pQh0wzXKCb-41" style="edgeStyle=orthogonalEdgeStyle;rounded=0;orthogonalLoop=1;jettySize=auto;html=1;entryX=0;entryY=0.5;entryDx=0;entryDy=0;" parent="O7KahhrIa4pQh0wzXKCb-37" source="O7KahhrIa4pQh0wzXKCb-42" target="O7KahhrIa4pQh0wzXKCb-38" edge="1">
          <mxGeometry relative="1" as="geometry">
            <Array as="points">
              <mxPoint x="-9" y="354" />
              <mxPoint x="-9" y="80" />
            </Array>
          </mxGeometry>
        </mxCell>
        <UserObject label="Madhusudhan Reddy&lt;br&gt;&lt;i style=&quot;color: gray&quot;&gt;Application Engineer&lt;/i&gt;&lt;br&gt;&lt;a href=&quot;mailto:madhusudhanr@altair.com&quot;&gt;Email&lt;/a&gt;" name="Madhusudhan Reddy" position="Application Engineer" location="Bangalore, India" email="madhusudhanr@altair.com" placeholders="1" link="https://www.draw.io" id="O7KahhrIa4pQh0wzXKCb-42">
          <mxCell style="label;image=https://cdn3.iconfinder.com/data/icons/user-avatars-1/512/users-2-128.png;whiteSpace=wrap;html=1;rounded=0;glass=0;" parent="O7KahhrIa4pQh0wzXKCb-37" vertex="1">
            <mxGeometry x="11" y="316" width="189" height="80" as="geometry" />
          </mxCell>
        </UserObject>
        <mxCell id="O7KahhrIa4pQh0wzXKCb-43" style="edgeStyle=orthogonalEdgeStyle;rounded=0;orthogonalLoop=1;jettySize=auto;html=1;entryX=0;entryY=0.5;entryDx=0;entryDy=0;" parent="O7KahhrIa4pQh0wzXKCb-37" source="O7KahhrIa4pQh0wzXKCb-44" target="O7KahhrIa4pQh0wzXKCb-38" edge="1">
          <mxGeometry relative="1" as="geometry">
            <Array as="points">
              <mxPoint x="-9" y="174" />
              <mxPoint x="-9" y="80" />
            </Array>
          </mxGeometry>
        </mxCell>
        <UserObject label="Nandish Gadgimath&lt;br&gt;&lt;i style=&quot;color: gray&quot;&gt;Application Engineer&lt;/i&gt;&lt;br&gt;&lt;a href=&quot;mailto:nandig@altair.com&quot;&gt;Email&lt;/a&gt;" name="Nandish Gadgimath" position="Application Engineer" location="Bangalore, India" email="nandig@altair.com" placeholders="1" link="https://www.draw.io" id="O7KahhrIa4pQh0wzXKCb-44">
          <mxCell style="label;image=https://cdn3.iconfinder.com/data/icons/user-avatars-1/512/users-2-128.png;whiteSpace=wrap;html=1;rounded=0;glass=0;" parent="O7KahhrIa4pQh0wzXKCb-37" vertex="1">
            <mxGeometry x="11" y="132" width="189" height="80" as="geometry" />
          </mxCell>
        </UserObject>
        <mxCell id="O7KahhrIa4pQh0wzXKCb-45" style="edgeStyle=orthogonalEdgeStyle;rounded=0;orthogonalLoop=1;jettySize=auto;html=1;entryX=0;entryY=0.5;entryDx=0;entryDy=0;" parent="O7KahhrIa4pQh0wzXKCb-30" source="O7KahhrIa4pQh0wzXKCb-46" target="O7KahhrIa4pQh0wzXKCb-32" edge="1">
          <mxGeometry relative="1" as="geometry">
            <Array as="points">
              <mxPoint x="11" y="280" />
              <mxPoint x="11" y="180" />
            </Array>
          </mxGeometry>
        </mxCell>
        <UserObject label="Abhishek Dutt&lt;br&gt;&lt;i style=&quot;color: gray&quot;&gt;Systems Engineer-HPC&lt;/i&gt;&lt;br&gt;&lt;a href=&quot;mailto:abhishekd@altair.com&quot;&gt;Email&lt;/a&gt;" name="Abhishek Dutt" position="Systems Engineer-HPC" location="Bangalore, India" email="abhishekd@altair.com" placeholders="1" link="https://www.draw.io" id="O7KahhrIa4pQh0wzXKCb-46">
          <mxCell style="label;image=https://cdn3.iconfinder.com/data/icons/user-avatars-1/512/users-2-128.png;whiteSpace=wrap;html=1;rounded=0;glass=0;" parent="O7KahhrIa4pQh0wzXKCb-30" vertex="1">
            <mxGeometry x="31" y="240" width="178" height="80" as="geometry" />
          </mxCell>
        </UserObject>
        <UserObject label="Mohan Murari&lt;br&gt;&lt;i style=&quot;color: gray&quot;&gt;Systems Engineer&lt;/i&gt;&lt;br&gt;&lt;a href=&quot;mailto:mmurari@altair.com&quot;&gt;Email&lt;/a&gt;" name="Mohan Murari" position="Systems Engineer" location="Bangalore, India" email="mmurari@altair.com" placeholders="1" link="https://www.draw.io" id="O7KahhrIa4pQh0wzXKCb-47">
          <mxCell style="label;image=https://cdn3.iconfinder.com/data/icons/user-avatars-1/512/users-2-128.png;whiteSpace=wrap;html=1;rounded=0;glass=0;" parent="O7KahhrIa4pQh0wzXKCb-30" vertex="1">
            <mxGeometry x="31" y="620" width="178" height="80" as="geometry" />
          </mxCell>
        </UserObject>
        <mxCell id="O7KahhrIa4pQh0wzXKCb-48" value="Japan" style="swimlane;html=1;startSize=20;horizontal=1;containerType=tree;glass=0;" parent="O7KahhrIa4pQh0wzXKCb-1" vertex="1">
          <mxGeometry x="1092" y="350" width="240" height="640" as="geometry">
            <mxRectangle x="10" y="280" width="90" height="30" as="alternateBounds" />
          </mxGeometry>
        </mxCell>
        <UserObject label="Eiichi Kasono&lt;br&gt;&lt;i style=&quot;color: gray&quot;&gt;Country MGR&lt;/i&gt;&lt;br&gt;&lt;a href=&quot;mailto:kasono@altair.com&quot;&gt;Email&lt;/a&gt;" name="Eiichi Kasono" position="Country MGR" location="Tokyo, Japan" email="kasono@altair.com" placeholders="1" link="https://www.draw.io" id="O7KahhrIa4pQh0wzXKCb-49">
          <mxCell style="label;image=https://cdn3.iconfinder.com/data/icons/user-avatars-1/512/users-2-128.png;whiteSpace=wrap;html=1;rounded=0;glass=0;fillColor=#dae8fc;strokeColor=#6c8ebf;" parent="O7KahhrIa4pQh0wzXKCb-48" vertex="1">
            <mxGeometry x="39" y="40" width="178" height="80" as="geometry" />
          </mxCell>
        </UserObject>
        <mxCell id="O7KahhrIa4pQh0wzXKCb-50" style="edgeStyle=orthogonalEdgeStyle;rounded=0;orthogonalLoop=1;jettySize=auto;html=1;entryX=0.5;entryY=1;entryDx=0;entryDy=0;" parent="O7KahhrIa4pQh0wzXKCb-48" source="O7KahhrIa4pQh0wzXKCb-51" target="O7KahhrIa4pQh0wzXKCb-49" edge="1">
          <mxGeometry relative="1" as="geometry" />
        </mxCell>
        <UserObject label="Hiroji Kubo&lt;br&gt;&lt;i style=&quot;color: gray&quot;&gt;Senior Technical Director&lt;/i&gt;&lt;br&gt;&lt;a href=&quot;mailto:kubo@altair.com&quot;&gt;Email&lt;/a&gt;" name="Hiroji Kubo" position="Senior Technical Director" location="Tokyo, Japan" email="kubo@altair.com" placeholders="1" link="https://www.draw.io" id="O7KahhrIa4pQh0wzXKCb-51">
          <mxCell style="label;image=https://cdn3.iconfinder.com/data/icons/user-avatars-1/512/users-2-128.png;whiteSpace=wrap;html=1;rounded=0;glass=0;" parent="O7KahhrIa4pQh0wzXKCb-48" vertex="1">
            <mxGeometry x="39" y="140" width="178" height="80" as="geometry" />
          </mxCell>
        </UserObject>
        <mxCell id="O7KahhrIa4pQh0wzXKCb-52" style="edgeStyle=orthogonalEdgeStyle;rounded=0;orthogonalLoop=1;jettySize=auto;html=1;entryX=0;entryY=0.5;entryDx=0;entryDy=0;" parent="O7KahhrIa4pQh0wzXKCb-48" source="O7KahhrIa4pQh0wzXKCb-53" target="O7KahhrIa4pQh0wzXKCb-51" edge="1">
          <mxGeometry relative="1" as="geometry">
            <Array as="points">
              <mxPoint x="19" y="280" />
              <mxPoint x="19" y="180" />
            </Array>
          </mxGeometry>
        </mxCell>
        <UserObject label="Mai Hashimoto&lt;br&gt;&lt;i style=&quot;color: gray&quot;&gt;Senior Application Specialist&lt;/i&gt;&lt;br&gt;&lt;a href=&quot;mailto:mai@altair.com&quot;&gt;Email&lt;/a&gt;" name="Mai Hashimoto" position="Senior Application Specialist" location="Tokyo, Japan" email="mai@altair.com" placeholders="1" link="https://www.draw.io" id="O7KahhrIa4pQh0wzXKCb-53">
          <mxCell style="label;image=https://cdn3.iconfinder.com/data/icons/user-avatars-1/512/users-2-128.png;whiteSpace=wrap;html=1;rounded=0;glass=0;" parent="O7KahhrIa4pQh0wzXKCb-48" vertex="1">
            <mxGeometry x="39" y="240" width="178" height="80" as="geometry" />
          </mxCell>
        </UserObject>
        <mxCell id="O7KahhrIa4pQh0wzXKCb-54" style="edgeStyle=orthogonalEdgeStyle;rounded=0;orthogonalLoop=1;jettySize=auto;html=1;entryX=0;entryY=0.5;entryDx=0;entryDy=0;" parent="O7KahhrIa4pQh0wzXKCb-48" source="O7KahhrIa4pQh0wzXKCb-55" target="O7KahhrIa4pQh0wzXKCb-51" edge="1">
          <mxGeometry relative="1" as="geometry">
            <Array as="points">
              <mxPoint x="19" y="380" />
              <mxPoint x="19" y="180" />
            </Array>
          </mxGeometry>
        </mxCell>
        <UserObject label="Daisuke Watanabe&lt;br&gt;&lt;i style=&quot;color: gray&quot;&gt;Senior Application Specialist&lt;/i&gt;&lt;br&gt;&lt;a href=&quot;mailto:dwatanabe@altair.com&quot;&gt;Email&lt;/a&gt;" name="Daisuke Watanabe" position="Senior Application Specialist" location="Tokyo,Japan" email="dwatanabe@altair.com" placeholders="1" link="https://www.draw.io" id="O7KahhrIa4pQh0wzXKCb-55">
          <mxCell style="label;image=https://cdn3.iconfinder.com/data/icons/user-avatars-1/512/users-2-128.png;whiteSpace=wrap;html=1;rounded=0;glass=0;" parent="O7KahhrIa4pQh0wzXKCb-48" vertex="1">
            <mxGeometry x="39" y="340" width="178" height="80" as="geometry" />
          </mxCell>
        </UserObject>
        <mxCell id="O7KahhrIa4pQh0wzXKCb-56" style="edgeStyle=orthogonalEdgeStyle;rounded=0;orthogonalLoop=1;jettySize=auto;html=1;entryX=0;entryY=0.5;entryDx=0;entryDy=0;" parent="O7KahhrIa4pQh0wzXKCb-48" source="O7KahhrIa4pQh0wzXKCb-57" target="O7KahhrIa4pQh0wzXKCb-51" edge="1">
          <mxGeometry relative="1" as="geometry">
            <Array as="points">
              <mxPoint x="19" y="470" />
              <mxPoint x="19" y="180" />
            </Array>
          </mxGeometry>
        </mxCell>
        <UserObject label="Takeshi Shiratori&lt;br&gt;&lt;i style=&quot;color: gray&quot;&gt;Senior Application Specialist&lt;/i&gt;&lt;br&gt;&lt;a href=&quot;mailto:shiratori@altair.com&quot;&gt;Email&lt;/a&gt;" name="Takeshi Shiratori" position="Senior Application Specialist" location="Tokyo, Japan" email="shiratori@altair.com" placeholders="1" link="https://www.draw.io" id="O7KahhrIa4pQh0wzXKCb-57">
          <mxCell style="label;image=https://cdn3.iconfinder.com/data/icons/user-avatars-1/512/users-2-128.png;whiteSpace=wrap;html=1;rounded=0;glass=0;" parent="O7KahhrIa4pQh0wzXKCb-48" vertex="1">
            <mxGeometry x="39" y="441" width="178" height="80" as="geometry" />
          </mxCell>
        </UserObject>
        <mxCell id="O7KahhrIa4pQh0wzXKCb-58" style="edgeStyle=orthogonalEdgeStyle;rounded=0;orthogonalLoop=1;jettySize=auto;html=1;entryX=0;entryY=0.5;entryDx=0;entryDy=0;" parent="O7KahhrIa4pQh0wzXKCb-48" source="O7KahhrIa4pQh0wzXKCb-59" target="O7KahhrIa4pQh0wzXKCb-51" edge="1">
          <mxGeometry relative="1" as="geometry">
            <Array as="points">
              <mxPoint x="19" y="580" />
              <mxPoint x="19" y="180" />
            </Array>
          </mxGeometry>
        </mxCell>
        <UserObject label="Shigemitsu Ikei&lt;br&gt;&lt;i style=&quot;color: gray&quot;&gt;Support Engineer&lt;/i&gt;&lt;br&gt;&lt;a href=&quot;mailto:ikei@altair.com&quot;&gt;Email&lt;/a&gt;" name="Shigemitsu Ikei" position="Support Engineer" location="Tokyo, Japan" email="ikei@altair.com" placeholders="1" link="https://www.draw.io" id="O7KahhrIa4pQh0wzXKCb-59">
          <mxCell style="label;image=https://cdn3.iconfinder.com/data/icons/user-avatars-1/512/users-2-128.png;whiteSpace=wrap;html=1;rounded=0;glass=0;" parent="O7KahhrIa4pQh0wzXKCb-48" vertex="1">
            <mxGeometry x="39" y="541" width="178" height="80" as="geometry" />
          </mxCell>
        </UserObject>
        <mxCell id="O7KahhrIa4pQh0wzXKCb-60" value="Korea" style="swimlane;html=1;startSize=20;horizontal=1;containerType=tree;glass=0;" parent="O7KahhrIa4pQh0wzXKCb-1" vertex="1">
          <mxGeometry x="1362" y="350" width="240" height="780" as="geometry">
            <mxRectangle x="10" y="280" width="90" height="30" as="alternateBounds" />
          </mxGeometry>
        </mxCell>
        <UserObject label="SungWook Min&lt;br&gt;&lt;i style=&quot;color: gray&quot;&gt;Engineer&lt;/i&gt;&lt;br&gt;&lt;a href=&quot;mailto:min@altair.com&quot;&gt;Email&lt;/a&gt;" name="SungWook Min" position="Engineer" location="Bundang, South Korea" email="min@altair.com" placeholders="1" link="https://www.draw.io" id="O7KahhrIa4pQh0wzXKCb-61">
          <mxCell style="label;image=https://cdn3.iconfinder.com/data/icons/user-avatars-1/512/users-2-128.png;whiteSpace=wrap;html=1;rounded=0;glass=0;" parent="O7KahhrIa4pQh0wzXKCb-60" vertex="1">
            <mxGeometry x="31" y="40" width="178" height="80" as="geometry" />
          </mxCell>
        </UserObject>
        <UserObject label="JinKoo (Gray) Park&lt;br&gt;&lt;i style=&quot;color: gray&quot;&gt;Engineer&lt;/i&gt;&lt;br&gt;&lt;a href=&quot;mailto:jinkoo@altair.com&quot;&gt;Email&lt;/a&gt;" name="JinKoo (Gray) Park" position="Engineer" location="Bundang, South Korea" email="jinkoo@altair.com" placeholders="1" link="https://www.draw.io" id="O7KahhrIa4pQh0wzXKCb-62">
          <mxCell style="label;image=https://cdn3.iconfinder.com/data/icons/user-avatars-1/512/users-2-128.png;whiteSpace=wrap;html=1;rounded=0;glass=0;" parent="O7KahhrIa4pQh0wzXKCb-60" vertex="1">
            <mxGeometry x="31" y="140" width="178" height="80" as="geometry" />
          </mxCell>
        </UserObject>
        <UserObject label="ChanWoo(Victor) Kim&lt;br&gt;&lt;i style=&quot;color: gray&quot;&gt;Intern&lt;/i&gt;&lt;br&gt;&lt;a href=&quot;mailto:chanwook@altair.com&quot;&gt;Email&lt;/a&gt;" name="ChanWoo(Victor) Kim" position="Intern" location="Bundang, South Korea" email="chanwook@altair.com" placeholders="1" link="https://www.draw.io" id="O7KahhrIa4pQh0wzXKCb-63">
          <mxCell style="label;image=https://cdn3.iconfinder.com/data/icons/user-avatars-1/512/users-2-128.png;whiteSpace=wrap;html=1;rounded=0;glass=0;" parent="O7KahhrIa4pQh0wzXKCb-60" vertex="1">
            <mxGeometry x="31" y="240" width="178" height="80" as="geometry" />
          </mxCell>
        </UserObject>
        <UserObject label="HyoEun(Amber) Kim&lt;br&gt;&lt;i style=&quot;color: gray&quot;&gt;Intern&lt;/i&gt;&lt;br&gt;&lt;a href=&quot;mailto:hyoeunk@altair.com&quot;&gt;Email&lt;/a&gt;" name="HyoEun(Amber) Kim" position="Intern" location="Bundang, South Korea" email="hyoeunk@altair.com" placeholders="1" link="https://www.draw.io" id="O7KahhrIa4pQh0wzXKCb-64">
          <mxCell style="label;image=https://cdn3.iconfinder.com/data/icons/user-avatars-1/512/users-2-128.png;whiteSpace=wrap;html=1;rounded=0;glass=0;" parent="O7KahhrIa4pQh0wzXKCb-60" vertex="1">
            <mxGeometry x="31" y="340" width="178" height="80" as="geometry" />
          </mxCell>
        </UserObject>
        <mxCell id="O7KahhrIa4pQh0wzXKCb-65" value="Tech Vertical" style="swimlane;whiteSpace=wrap;html=1;" parent="O7KahhrIa4pQh0wzXKCb-60" vertex="1">
          <mxGeometry x="15" y="440" width="210" height="320" as="geometry">
            <mxRectangle x="20" y="540" width="110" height="30" as="alternateBounds" />
          </mxGeometry>
        </mxCell>
        <UserObject label="Doha Kim&lt;br&gt;&lt;i style=&quot;color: gray&quot;&gt;Senior Director&lt;/i&gt;&lt;br&gt;&lt;a href=&quot;mailto:dhkim@altair.com&quot;&gt;Email&lt;/a&gt;" name="Doha Kim" position="Senior Director" location="Bundang" email="dhkim@altair.com" placeholders="1" link="https://www.draw.io" id="O7KahhrIa4pQh0wzXKCb-66">
          <mxCell style="label;image=https://cdn3.iconfinder.com/data/icons/user-avatars-1/512/users-2-128.png;whiteSpace=wrap;html=1;rounded=0;glass=0;fillColor=#dae8fc;strokeColor=#6c8ebf;" parent="O7KahhrIa4pQh0wzXKCb-65" vertex="1">
            <mxGeometry x="11" y="40" width="189" height="80" as="geometry" />
          </mxCell>
        </UserObject>
        <mxCell id="O7KahhrIa4pQh0wzXKCb-67" style="edgeStyle=orthogonalEdgeStyle;rounded=0;orthogonalLoop=1;jettySize=auto;html=1;entryX=0;entryY=0.5;entryDx=0;entryDy=0;" parent="O7KahhrIa4pQh0wzXKCb-65" source="O7KahhrIa4pQh0wzXKCb-68" target="O7KahhrIa4pQh0wzXKCb-66" edge="1">
          <mxGeometry relative="1" as="geometry">
            <Array as="points">
              <mxPoint x="-9" y="260" />
              <mxPoint x="-9" y="80" />
            </Array>
          </mxGeometry>
        </mxCell>
        <UserObject label="WanJun Kim&lt;br&gt;&lt;i style=&quot;color: gray&quot;&gt;Engineer&lt;/i&gt;&lt;br&gt;&lt;a href=&quot;mailto:wanjunk@altair.com&quot;&gt;Email&lt;/a&gt;" name="WanJun Kim" position="Engineer" location="Bundang" email="wanjunk@altair.com" placeholders="1" link="https://www.draw.io" id="O7KahhrIa4pQh0wzXKCb-68">
          <mxCell style="label;image=https://cdn3.iconfinder.com/data/icons/user-avatars-1/512/users-2-128.png;whiteSpace=wrap;html=1;rounded=0;glass=0;" parent="O7KahhrIa4pQh0wzXKCb-65" vertex="1">
            <mxGeometry x="11" y="224" width="189" height="80" as="geometry" />
          </mxCell>
        </UserObject>
        <mxCell id="O7KahhrIa4pQh0wzXKCb-69" style="edgeStyle=orthogonalEdgeStyle;rounded=0;orthogonalLoop=1;jettySize=auto;html=1;entryX=0;entryY=0.5;entryDx=0;entryDy=0;" parent="O7KahhrIa4pQh0wzXKCb-65" source="O7KahhrIa4pQh0wzXKCb-70" target="O7KahhrIa4pQh0wzXKCb-66" edge="1">
          <mxGeometry relative="1" as="geometry">
            <Array as="points">
              <mxPoint x="-9" y="170" />
              <mxPoint x="-9" y="80" />
            </Array>
          </mxGeometry>
        </mxCell>
        <UserObject label="SungJin Lee&lt;br&gt;&lt;i style=&quot;color: gray&quot;&gt;Senior Engineer&lt;/i&gt;&lt;br&gt;&lt;a href=&quot;mailto:sungjinl@altair.com&quot;&gt;Email&lt;/a&gt;" name="SungJin Lee" position="Senior Engineer" location="Bundang" email="sungjinl@altair.com" placeholders="1" link="https://www.draw.io" id="O7KahhrIa4pQh0wzXKCb-70">
          <mxCell style="label;image=https://cdn3.iconfinder.com/data/icons/user-avatars-1/512/users-2-128.png;whiteSpace=wrap;html=1;rounded=0;glass=0;" parent="O7KahhrIa4pQh0wzXKCb-65" vertex="1">
            <mxGeometry x="11" y="132" width="189" height="80" as="geometry" />
          </mxCell>
        </UserObject>
        <mxCell id="O7KahhrIa4pQh0wzXKCb-71" value="Altair Unlimited GTT" style="swimlane;html=1;startSize=20;horizontal=1;containerType=tree;glass=0;" parent="O7KahhrIa4pQh0wzXKCb-1" vertex="1">
          <mxGeometry x="1633" y="350" width="240" height="930" as="geometry">
            <mxRectangle x="1633" y="350" width="90" height="30" as="alternateBounds" />
          </mxGeometry>
        </mxCell>
        <UserObject label="Atul Yadav&lt;br&gt;&lt;i style=&quot;color: gray&quot;&gt;Technical Specialist, HPC&lt;/i&gt;&lt;br&gt;&lt;a href=&quot;mailto:ayadav@altair.com&quot;&gt;Email&lt;/a&gt;" name="Atul Yadav" position="Technical Specialist, HPC" location="Bangalore, India" email="ayadav@altair.com" placeholders="1" link="https://www.draw.io" id="O7KahhrIa4pQh0wzXKCb-72">
          <mxCell style="label;image=https://cdn3.iconfinder.com/data/icons/user-avatars-1/512/users-2-128.png;whiteSpace=wrap;html=1;rounded=0;glass=0;" parent="O7KahhrIa4pQh0wzXKCb-71" vertex="1">
            <mxGeometry x="31" y="40" width="178" height="80" as="geometry" />
          </mxCell>
        </UserObject>
        <mxCell id="O7KahhrIa4pQh0wzXKCb-73" style="edgeStyle=orthogonalEdgeStyle;rounded=0;orthogonalLoop=1;jettySize=auto;html=1;" parent="O7KahhrIa4pQh0wzXKCb-71" source="O7KahhrIa4pQh0wzXKCb-74" edge="1">
          <mxGeometry relative="1" as="geometry">
            <mxPoint x="147" y="-90" as="targetPoint" />
            <Array as="points">
              <mxPoint x="17" y="179" />
              <mxPoint x="17" y="-70" />
              <mxPoint x="147" y="-70" />
            </Array>
          </mxGeometry>
        </mxCell>
        <UserObject label="C Raja&lt;br&gt;&lt;i style=&quot;color: gray&quot;&gt;Senior Systems Engineer-HPC&lt;/i&gt;&lt;br&gt;&lt;a href=&quot;mailto:craja@altair.com&quot;&gt;Email&lt;/a&gt;" name="C Raja" position="Senior Systems Engineer-HPC" location="Bangalore, India" email="craja@altair.com" placeholders="1" link="https://www.draw.io" id="O7KahhrIa4pQh0wzXKCb-74">
          <mxCell style="label;image=https://cdn3.iconfinder.com/data/icons/user-avatars-1/512/users-2-128.png;whiteSpace=wrap;html=1;rounded=0;glass=0;" parent="O7KahhrIa4pQh0wzXKCb-71" vertex="1">
            <mxGeometry x="31" y="139" width="178" height="80" as="geometry" />
          </mxCell>
        </UserObject>
        <UserObject label="Jay Sullivan&lt;br&gt;&lt;i style=&quot;color: gray&quot;&gt;Systems Engineer - HPC&lt;/i&gt;&lt;br&gt;&lt;a href=&quot;mailto:jsullivan2@altair.com&quot;&gt;Email&lt;/a&gt;" name="Jay Sullivan" position="Systems Engineer - HPC" location="Italy" email="jsullivan2@altair.com" placeholders="1" link="https://www.draw.io" id="O7KahhrIa4pQh0wzXKCb-75">
          <mxCell style="label;image=https://cdn3.iconfinder.com/data/icons/user-avatars-1/512/users-2-128.png;whiteSpace=wrap;html=1;rounded=0;glass=0;" parent="O7KahhrIa4pQh0wzXKCb-71" vertex="1">
            <mxGeometry x="31" y="336" width="178" height="80" as="geometry" />
          </mxCell>
        </UserObject>
        <UserObject label="Prannesh Sathyamoorthy&lt;br&gt;&lt;i style=&quot;color: gray&quot;&gt;Systems Engineer- HPC&lt;/i&gt;&lt;br&gt;&lt;a href=&quot;mailto:prans@altair.com&quot;&gt;Email&lt;/a&gt;" name="Prannesh Sathyamoorthy" position="Systems Engineer- HPC" location="Bangalore, India" email="prans@altair.com" placeholders="1" link="https://www.draw.io" id="O7KahhrIa4pQh0wzXKCb-76">
          <mxCell style="label;image=https://cdn3.iconfinder.com/data/icons/user-avatars-1/512/users-2-128.png;whiteSpace=wrap;html=1;rounded=0;glass=0;" parent="O7KahhrIa4pQh0wzXKCb-71" vertex="1">
            <mxGeometry x="31" y="533" width="178" height="80" as="geometry" />
          </mxCell>
        </UserObject>
        <UserObject label="Sachin Shridhar Poojari&lt;br&gt;&lt;i style=&quot;color: gray&quot;&gt;Systems Engineer- HPC&lt;/i&gt;&lt;br&gt;&lt;a href=&quot;mailto:spoojari@altair.com&quot;&gt;Email&lt;/a&gt;" name="Sachin Shridhar Poojari" position="Systems Engineer- HPC" location="Bangalore, India" email="spoojari@altair.com" placeholders="1" link="https://www.draw.io" id="O7KahhrIa4pQh0wzXKCb-77">
          <mxCell style="label;image=https://cdn3.iconfinder.com/data/icons/user-avatars-1/512/users-2-128.png;whiteSpace=wrap;html=1;rounded=0;glass=0;" parent="O7KahhrIa4pQh0wzXKCb-71" vertex="1">
            <mxGeometry x="31" y="435" width="178" height="80" as="geometry" />
          </mxCell>
        </UserObject>
        <mxCell id="O7KahhrIa4pQh0wzXKCb-78" style="edgeStyle=orthogonalEdgeStyle;rounded=0;orthogonalLoop=1;jettySize=auto;html=1;entryX=1;entryY=0.5;entryDx=0;entryDy=0;" parent="O7KahhrIa4pQh0wzXKCb-71" source="O7KahhrIa4pQh0wzXKCb-79" target="O7KahhrIa4pQh0wzXKCb-76" edge="1">
          <mxGeometry relative="1" as="geometry">
            <Array as="points">
              <mxPoint x="229" y="660" />
              <mxPoint x="229" y="573" />
            </Array>
          </mxGeometry>
        </mxCell>
        <UserObject label="Dipika Gurtu&lt;br&gt;&lt;i style=&quot;color: gray&quot;&gt;Intern&lt;/i&gt;&lt;br&gt;&lt;a href=&quot;mailto:dipikag@altair.com&quot;&gt;Email&lt;/a&gt;" name="Dipika Gurtu" position="Intern" location="Bangalore, India" email="dipikag@altair.com" placeholders="1" link="https://www.draw.io" id="O7KahhrIa4pQh0wzXKCb-79">
          <mxCell style="label;image=https://cdn3.iconfinder.com/data/icons/user-avatars-1/512/users-2-128.png;whiteSpace=wrap;html=1;rounded=0;glass=0;" parent="O7KahhrIa4pQh0wzXKCb-71" vertex="1">
            <mxGeometry x="31" y="632" width="178" height="80" as="geometry" />
          </mxCell>
        </UserObject>
        <mxCell id="O7KahhrIa4pQh0wzXKCb-80" style="edgeStyle=orthogonalEdgeStyle;rounded=0;orthogonalLoop=1;jettySize=auto;html=1;entryX=1;entryY=0.5;entryDx=0;entryDy=0;" parent="O7KahhrIa4pQh0wzXKCb-71" source="O7KahhrIa4pQh0wzXKCb-81" target="O7KahhrIa4pQh0wzXKCb-76" edge="1">
          <mxGeometry relative="1" as="geometry">
            <Array as="points">
              <mxPoint x="229" y="770" />
              <mxPoint x="229" y="573" />
            </Array>
          </mxGeometry>
        </mxCell>
        <UserObject label="Srikar Gupta&lt;br&gt;&lt;i style=&quot;color: gray&quot;&gt;Intern&lt;/i&gt;&lt;br&gt;&lt;a href=&quot;mailto:srikarg@altair.com&quot;&gt;Email&lt;/a&gt;" name="Srikar Gupta" position="Intern" location="Bangalore, India" email="srikarg@altair.com" placeholders="1" link="https://www.draw.io" id="O7KahhrIa4pQh0wzXKCb-81">
          <mxCell style="label;image=https://cdn3.iconfinder.com/data/icons/user-avatars-1/512/users-2-128.png;whiteSpace=wrap;html=1;rounded=0;glass=0;" parent="O7KahhrIa4pQh0wzXKCb-71" vertex="1">
            <mxGeometry x="31" y="730.5" width="178" height="80" as="geometry" />
          </mxCell>
        </UserObject>
        <mxCell id="O7KahhrIa4pQh0wzXKCb-82" style="edgeStyle=orthogonalEdgeStyle;rounded=0;orthogonalLoop=1;jettySize=auto;html=1;exitX=0.5;exitY=0;exitDx=0;exitDy=0;entryX=0.5;entryY=1;entryDx=0;entryDy=0;" parent="O7KahhrIa4pQh0wzXKCb-71" source="O7KahhrIa4pQh0wzXKCb-83" target="O7KahhrIa4pQh0wzXKCb-74" edge="1">
          <mxGeometry relative="1" as="geometry" />
        </mxCell>
        <UserObject label="Harini Sampath&lt;br&gt;&lt;i style=&quot;color: gray&quot;&gt;Intern&lt;/i&gt;&lt;br&gt;&lt;a href=&quot;mailto:harinis@altair.com&quot;&gt;Email&lt;/a&gt;" name="Harini Sampath" position="Intern" location="Bangalore, India" email="harinis@altair.com" placeholders="1" link="https://www.draw.io" id="O7KahhrIa4pQh0wzXKCb-83">
          <mxCell style="label;image=https://cdn3.iconfinder.com/data/icons/user-avatars-1/512/users-2-128.png;whiteSpace=wrap;html=1;rounded=0;glass=0;" parent="O7KahhrIa4pQh0wzXKCb-71" vertex="1">
            <mxGeometry x="31" y="237" width="178" height="80" as="geometry" />
          </mxCell>
        </UserObject>
        <mxCell id="O7KahhrIa4pQh0wzXKCb-84" style="edgeStyle=orthogonalEdgeStyle;rounded=0;orthogonalLoop=1;jettySize=auto;html=1;entryX=1;entryY=0.5;entryDx=0;entryDy=0;" parent="O7KahhrIa4pQh0wzXKCb-71" source="O7KahhrIa4pQh0wzXKCb-85" target="O7KahhrIa4pQh0wzXKCb-75" edge="1">
          <mxGeometry relative="1" as="geometry">
            <Array as="points">
              <mxPoint x="267" y="860" />
              <mxPoint x="267" y="376" />
            </Array>
          </mxGeometry>
        </mxCell>
        <UserObject label="Marc Scuiletti&lt;br&gt;&lt;i style=&quot;color: gray&quot;&gt;Systems Administrator&lt;/i&gt;&lt;br&gt;&lt;a href=&quot;mailto:mscuiletti@altair.com&quot;&gt;Email&lt;/a&gt;" name="Marc Scuiletti" position="Systems Administrator" location="MI-Troy" email="mscuiletti@altair.com" placeholders="1" link="https://www.draw.io" id="O7KahhrIa4pQh0wzXKCb-85">
          <mxCell style="label;image=https://cdn3.iconfinder.com/data/icons/user-avatars-1/512/users-2-128.png;whiteSpace=wrap;html=1;rounded=0;glass=0;" parent="O7KahhrIa4pQh0wzXKCb-71" vertex="1">
            <mxGeometry x="31" y="830" width="178" height="80" as="geometry" />
          </mxCell>
        </UserObject>
        <mxCell id="O7KahhrIa4pQh0wzXKCb-86" style="edgeStyle=orthogonalEdgeStyle;rounded=0;orthogonalLoop=1;jettySize=auto;html=1;dashed=1;exitX=1;exitY=0.5;exitDx=0;exitDy=0;strokeColor=#994C00;" parent="O7KahhrIa4pQh0wzXKCb-1" source="O7KahhrIa4pQh0wzXKCb-16" edge="1">
          <mxGeometry relative="1" as="geometry">
            <Array as="points">
              <mxPoint x="780" y="530" />
              <mxPoint x="780" y="280" />
              <mxPoint x="840" y="280" />
              <mxPoint x="840" y="250" />
            </Array>
            <mxPoint x="930" y="250" as="targetPoint" />
          </mxGeometry>
        </mxCell>
        <mxCell id="O7KahhrIa4pQh0wzXKCb-87" style="edgeStyle=orthogonalEdgeStyle;rounded=0;orthogonalLoop=1;jettySize=auto;html=1;exitX=1;exitY=0.75;exitDx=0;exitDy=0;entryX=0.009;entryY=0.613;entryDx=0;entryDy=0;strokeColor=#000000;entryPerimeter=0;" parent="O7KahhrIa4pQh0wzXKCb-1" source="O7KahhrIa4pQh0wzXKCb-10" target="O7KahhrIa4pQh0wzXKCb-5" edge="1">
          <mxGeometry relative="1" as="geometry">
            <Array as="points">
              <mxPoint x="270" y="560" />
              <mxPoint x="270" y="280" />
              <mxPoint x="840" y="280" />
              <mxPoint x="840" y="249" />
            </Array>
          </mxGeometry>
        </mxCell>
        <mxCell id="O7KahhrIa4pQh0wzXKCb-88" style="edgeStyle=orthogonalEdgeStyle;rounded=0;orthogonalLoop=1;jettySize=auto;html=1;" parent="O7KahhrIa4pQh0wzXKCb-1" source="O7KahhrIa4pQh0wzXKCb-31" edge="1">
          <mxGeometry relative="1" as="geometry">
            <Array as="points">
              <mxPoint x="1053" y="430" />
            </Array>
            <mxPoint x="1053" y="280" as="targetPoint" />
          </mxGeometry>
        </mxCell>
        <mxCell id="O7KahhrIa4pQh0wzXKCb-89" style="edgeStyle=orthogonalEdgeStyle;rounded=0;orthogonalLoop=1;jettySize=auto;html=1;" parent="O7KahhrIa4pQh0wzXKCb-1" source="O7KahhrIa4pQh0wzXKCb-32" target="O7KahhrIa4pQh0wzXKCb-5" edge="1">
          <mxGeometry relative="1" as="geometry">
            <Array as="points">
              <mxPoint x="1053" y="530" />
            </Array>
          </mxGeometry>
        </mxCell>
        <mxCell id="O7KahhrIa4pQh0wzXKCb-90" style="edgeStyle=orthogonalEdgeStyle;rounded=0;orthogonalLoop=1;jettySize=auto;html=1;entryX=0.54;entryY=0.992;entryDx=0;entryDy=0;entryPerimeter=0;" parent="O7KahhrIa4pQh0wzXKCb-1" source="O7KahhrIa4pQh0wzXKCb-34" target="O7KahhrIa4pQh0wzXKCb-5" edge="1">
          <mxGeometry relative="1" as="geometry">
            <Array as="points">
              <mxPoint x="1054" y="840" />
            </Array>
          </mxGeometry>
        </mxCell>
        <mxCell id="O7KahhrIa4pQh0wzXKCb-91" style="edgeStyle=orthogonalEdgeStyle;rounded=0;orthogonalLoop=1;jettySize=auto;html=1;dashed=1;strokeColor=#994C00;" parent="O7KahhrIa4pQh0wzXKCb-1" source="O7KahhrIa4pQh0wzXKCb-51" edge="1">
          <mxGeometry relative="1" as="geometry">
            <Array as="points">
              <mxPoint x="1070" y="510" />
            </Array>
            <mxPoint x="1070" y="280" as="targetPoint" />
          </mxGeometry>
        </mxCell>
        <mxCell id="O7KahhrIa4pQh0wzXKCb-92" style="edgeStyle=orthogonalEdgeStyle;rounded=0;orthogonalLoop=1;jettySize=auto;html=1;dashed=1;strokeColor=#994C00;" parent="O7KahhrIa4pQh0wzXKCb-1" source="O7KahhrIa4pQh0wzXKCb-44" edge="1">
          <mxGeometry relative="1" as="geometry">
            <Array as="points">
              <mxPoint x="1070" y="1250" />
            </Array>
            <mxPoint x="1070" y="280" as="targetPoint" />
          </mxGeometry>
        </mxCell>
        <mxCell id="O7KahhrIa4pQh0wzXKCb-93" style="edgeStyle=orthogonalEdgeStyle;rounded=0;orthogonalLoop=1;jettySize=auto;html=1;dashed=1;strokeColor=#994C00;" parent="O7KahhrIa4pQh0wzXKCb-1" source="O7KahhrIa4pQh0wzXKCb-40" edge="1">
          <mxGeometry relative="1" as="geometry">
            <Array as="points">
              <mxPoint x="1070" y="1350" />
            </Array>
            <mxPoint x="1070" y="280" as="targetPoint" />
          </mxGeometry>
        </mxCell>
        <mxCell id="O7KahhrIa4pQh0wzXKCb-94" style="edgeStyle=orthogonalEdgeStyle;rounded=0;orthogonalLoop=1;jettySize=auto;html=1;dashed=1;strokeColor=#994C00;" parent="O7KahhrIa4pQh0wzXKCb-1" source="O7KahhrIa4pQh0wzXKCb-42" edge="1">
          <mxGeometry relative="1" as="geometry">
            <Array as="points">
              <mxPoint x="1070" y="1440" />
            </Array>
            <mxPoint x="1070" y="280" as="targetPoint" />
          </mxGeometry>
        </mxCell>
        <mxCell id="O7KahhrIa4pQh0wzXKCb-95" style="edgeStyle=orthogonalEdgeStyle;rounded=0;orthogonalLoop=1;jettySize=auto;html=1;" parent="O7KahhrIa4pQh0wzXKCb-1" source="O7KahhrIa4pQh0wzXKCb-61" edge="1">
          <mxGeometry relative="1" as="geometry">
            <Array as="points">
              <mxPoint x="1380" y="430" />
              <mxPoint x="1380" y="280" />
              <mxPoint x="1200" y="280" />
              <mxPoint x="1200" y="270" />
            </Array>
            <mxPoint x="1160" y="270" as="targetPoint" />
          </mxGeometry>
        </mxCell>
        <mxCell id="O7KahhrIa4pQh0wzXKCb-96" style="edgeStyle=orthogonalEdgeStyle;rounded=0;orthogonalLoop=1;jettySize=auto;html=1;entryX=0.998;entryY=0.89;entryDx=0;entryDy=0;entryPerimeter=0;" parent="O7KahhrIa4pQh0wzXKCb-1" source="O7KahhrIa4pQh0wzXKCb-62" target="O7KahhrIa4pQh0wzXKCb-5" edge="1">
          <mxGeometry relative="1" as="geometry">
            <Array as="points">
              <mxPoint x="1380" y="530" />
              <mxPoint x="1380" y="280" />
              <mxPoint x="1200" y="280" />
              <mxPoint x="1200" y="270" />
              <mxPoint x="1161" y="270" />
              <mxPoint x="1161" y="271" />
            </Array>
          </mxGeometry>
        </mxCell>
        <mxCell id="O7KahhrIa4pQh0wzXKCb-97" style="edgeStyle=orthogonalEdgeStyle;rounded=0;orthogonalLoop=1;jettySize=auto;html=1;" parent="O7KahhrIa4pQh0wzXKCb-1" source="O7KahhrIa4pQh0wzXKCb-63" edge="1">
          <mxGeometry relative="1" as="geometry">
            <Array as="points">
              <mxPoint x="1380" y="630" />
              <mxPoint x="1380" y="280" />
              <mxPoint x="1200" y="280" />
              <mxPoint x="1200" y="270" />
            </Array>
            <mxPoint x="1160" y="270" as="targetPoint" />
          </mxGeometry>
        </mxCell>
        <mxCell id="O7KahhrIa4pQh0wzXKCb-98" style="edgeStyle=orthogonalEdgeStyle;rounded=0;orthogonalLoop=1;jettySize=auto;html=1;" parent="O7KahhrIa4pQh0wzXKCb-1" source="O7KahhrIa4pQh0wzXKCb-64" edge="1">
          <mxGeometry relative="1" as="geometry">
            <Array as="points">
              <mxPoint x="1380" y="730" />
              <mxPoint x="1380" y="280" />
              <mxPoint x="1200" y="280" />
              <mxPoint x="1200" y="270" />
            </Array>
            <mxPoint x="1160" y="270" as="targetPoint" />
          </mxGeometry>
        </mxCell>
        <mxCell id="O7KahhrIa4pQh0wzXKCb-99" style="edgeStyle=orthogonalEdgeStyle;rounded=0;orthogonalLoop=1;jettySize=auto;html=1;entryX=0.54;entryY=1.008;entryDx=0;entryDy=0;entryPerimeter=0;" parent="O7KahhrIa4pQh0wzXKCb-1" source="O7KahhrIa4pQh0wzXKCb-33" target="O7KahhrIa4pQh0wzXKCb-5" edge="1">
          <mxGeometry relative="1" as="geometry">
            <Array as="points">
              <mxPoint x="1054" y="910" />
            </Array>
          </mxGeometry>
        </mxCell>
        <mxCell id="O7KahhrIa4pQh0wzXKCb-100" style="edgeStyle=orthogonalEdgeStyle;rounded=0;orthogonalLoop=1;jettySize=auto;html=1;dashed=1;strokeColor=#994C00;" parent="O7KahhrIa4pQh0wzXKCb-1" source="O7KahhrIa4pQh0wzXKCb-47" edge="1">
          <mxGeometry relative="1" as="geometry">
            <Array as="points">
              <mxPoint x="1070" y="1010" />
            </Array>
            <mxPoint x="1070" y="280" as="targetPoint" />
          </mxGeometry>
        </mxCell>
        <mxCell id="O7KahhrIa4pQh0wzXKCb-101" style="edgeStyle=orthogonalEdgeStyle;rounded=0;orthogonalLoop=1;jettySize=auto;html=1;entryX=0.353;entryY=1.004;entryDx=0;entryDy=0;entryPerimeter=0;" parent="O7KahhrIa4pQh0wzXKCb-1" source="O7KahhrIa4pQh0wzXKCb-76" target="O7KahhrIa4pQh0wzXKCb-105" edge="1">
          <mxGeometry relative="1" as="geometry">
            <Array as="points">
              <mxPoint x="1650" y="923" />
              <mxPoint x="1650" y="280" />
              <mxPoint x="1778" y="280" />
            </Array>
          </mxGeometry>
        </mxCell>
        <mxCell id="O7KahhrIa4pQh0wzXKCb-102" style="edgeStyle=orthogonalEdgeStyle;rounded=0;orthogonalLoop=1;jettySize=auto;html=1;entryX=0.994;entryY=0.619;entryDx=0;entryDy=0;entryPerimeter=0;dashed=1;strokeColor=#994C00;" parent="O7KahhrIa4pQh0wzXKCb-1" source="O7KahhrIa4pQh0wzXKCb-70" target="O7KahhrIa4pQh0wzXKCb-5" edge="1">
          <mxGeometry relative="1" as="geometry">
            <Array as="points">
              <mxPoint x="1620" y="962" />
              <mxPoint x="1620" y="250" />
            </Array>
          </mxGeometry>
        </mxCell>
        <mxCell id="O7KahhrIa4pQh0wzXKCb-103" style="edgeStyle=orthogonalEdgeStyle;rounded=0;orthogonalLoop=1;jettySize=auto;html=1;entryX=0.994;entryY=0.619;entryDx=0;entryDy=0;entryPerimeter=0;dashed=1;strokeColor=#994C00;" parent="O7KahhrIa4pQh0wzXKCb-1" source="O7KahhrIa4pQh0wzXKCb-68" target="O7KahhrIa4pQh0wzXKCb-5" edge="1">
          <mxGeometry relative="1" as="geometry">
            <Array as="points">
              <mxPoint x="1620" y="1054" />
              <mxPoint x="1620" y="250" />
            </Array>
          </mxGeometry>
        </mxCell>
        <mxCell id="O7KahhrIa4pQh0wzXKCb-104" value="" style="edgeStyle=orthogonalEdgeStyle;rounded=0;orthogonalLoop=1;jettySize=auto;html=1;strokeColor=#994C00;dashed=1;" parent="O7KahhrIa4pQh0wzXKCb-1" source="O7KahhrIa4pQh0wzXKCb-85" target="O7KahhrIa4pQh0wzXKCb-105" edge="1">
          <mxGeometry relative="1" as="geometry">
            <Array as="points">
              <mxPoint x="1910" y="1250" />
              <mxPoint x="1910" y="238" />
            </Array>
            <mxPoint x="1902" y="1250" as="sourcePoint" />
            <mxPoint x="1168" y="238" as="targetPoint" />
          </mxGeometry>
        </mxCell>
        <UserObject label="Renuka Prasad&lt;br&gt;&lt;i style=&quot;color: gray&quot;&gt;Manager - AUL GTT&lt;/i&gt;&lt;br&gt;&lt;a href=&quot;mailto:balar@altair.com&quot;&gt;Email&lt;/a&gt;" name="Balamurugan R" position="Director, EC" location="Bangalore, India" email="balar@altair.com" placeholders="1" link="https://www.draw.io" id="O7KahhrIa4pQh0wzXKCb-105">
          <mxCell style="label;image=https://cdn3.iconfinder.com/data/icons/user-avatars-1/512/users-2-128.png;whiteSpace=wrap;html=1;rounded=0;glass=0;points=[[0,0,0,0,0],[0,0.25,0,0,0],[0,0.5,0,0,0],[0,0.75,0,0,0],[0,1,0,0,0],[0.25,0,0,0,0],[0.25,1,0,0,0],[0.5,0,0,0,0],[0.5,1,0,0,0],[0.64,1,0,0,0],[0.75,0,0,0,0],[0.75,1,0,0,0],[0.87,1,0,0,0],[1,0,0,0,0],[1,0.25,0,0,0],[1,0.5,0,0,0],[1,0.75,0,0,0],[1,1,0,0,0]];" parent="O7KahhrIa4pQh0wzXKCb-1" vertex="1">
            <mxGeometry x="1717" y="180" width="173" height="80" as="geometry" />
          </mxCell>
        </UserObject>
        <mxCell id="O7KahhrIa4pQh0wzXKCb-106" style="edgeStyle=orthogonalEdgeStyle;rounded=0;orthogonalLoop=1;jettySize=auto;html=1;entryX=1;entryY=0.5;entryDx=0;entryDy=0;" parent="O7KahhrIa4pQh0wzXKCb-1" source="O7KahhrIa4pQh0wzXKCb-107" target="O7KahhrIa4pQh0wzXKCb-2" edge="1">
          <mxGeometry relative="1" as="geometry">
            <Array as="points">
              <mxPoint x="1440" y="80" />
            </Array>
          </mxGeometry>
        </mxCell>
        <UserObject label="Balamurugan R&lt;br&gt;&lt;i style=&quot;color: gray&quot;&gt;Director, EC&lt;/i&gt;&lt;br&gt;&lt;a href=&quot;mailto:balar@altair.com&quot;&gt;Email&lt;/a&gt;" name="Balamurugan R" position="Director, EC" location="Bangalore, India" email="balar@altair.com" placeholders="1" link="https://www.draw.io" id="O7KahhrIa4pQh0wzXKCb-107">
          <mxCell style="label;image=https://cdn3.iconfinder.com/data/icons/user-avatars-1/512/users-2-128.png;whiteSpace=wrap;html=1;rounded=0;glass=0;points=[[0,0,0,0,0],[0,0.25,0,0,0],[0,0.5,0,0,0],[0,0.75,0,0,0],[0,1,0,0,0],[0.25,0,0,0,0],[0.25,1,0,0,0],[0.5,0,0,0,0],[0.5,1,0,0,0],[0.64,1,0,0,0],[0.75,0,0,0,0],[0.75,1,0,0,0],[0.87,1,0,0,0],[1,0,0,0,0],[1,0.25,0,0,0],[1,0.5,0,0,0],[1,0.75,0,0,0],[1,1,0,0,0]];" parent="O7KahhrIa4pQh0wzXKCb-1" vertex="1">
            <mxGeometry x="1362" y="120" width="156" height="80" as="geometry" />
          </mxCell>
        </UserObject>
        <mxCell id="O7KahhrIa4pQh0wzXKCb-108" style="edgeStyle=orthogonalEdgeStyle;rounded=0;orthogonalLoop=1;jettySize=auto;html=1;" parent="O7KahhrIa4pQh0wzXKCb-1" source="O7KahhrIa4pQh0wzXKCb-72" edge="1">
          <mxGeometry relative="1" as="geometry">
            <mxPoint x="1779" y="260" as="targetPoint" />
            <Array as="points">
              <mxPoint x="1650" y="430" />
              <mxPoint x="1650" y="280" />
              <mxPoint x="1779" y="280" />
            </Array>
          </mxGeometry>
        </mxCell>
        <mxCell id="O7KahhrIa4pQh0wzXKCb-109" style="edgeStyle=orthogonalEdgeStyle;rounded=0;orthogonalLoop=1;jettySize=auto;html=1;" parent="O7KahhrIa4pQh0wzXKCb-1" source="O7KahhrIa4pQh0wzXKCb-77" target="O7KahhrIa4pQh0wzXKCb-105" edge="1">
          <mxGeometry relative="1" as="geometry">
            <Array as="points">
              <mxPoint x="1650" y="825" />
              <mxPoint x="1650" y="280" />
              <mxPoint x="1795" y="280" />
            </Array>
          </mxGeometry>
        </mxCell>
        <mxCell id="O7KahhrIa4pQh0wzXKCb-110" style="edgeStyle=orthogonalEdgeStyle;rounded=0;orthogonalLoop=1;jettySize=auto;html=1;" parent="O7KahhrIa4pQh0wzXKCb-1" source="O7KahhrIa4pQh0wzXKCb-12" edge="1">
          <mxGeometry relative="1" as="geometry">
            <mxPoint x="930" y="230" as="targetPoint" />
            <Array as="points">
              <mxPoint x="520" y="530" />
              <mxPoint x="520" y="230" />
            </Array>
          </mxGeometry>
        </mxCell>
        <mxCell id="O7KahhrIa4pQh0wzXKCb-111" style="edgeStyle=orthogonalEdgeStyle;rounded=0;orthogonalLoop=1;jettySize=auto;html=1;" parent="O7KahhrIa4pQh0wzXKCb-1" source="O7KahhrIa4pQh0wzXKCb-13" edge="1">
          <mxGeometry relative="1" as="geometry">
            <mxPoint x="930" y="230" as="targetPoint" />
            <Array as="points">
              <mxPoint x="520" y="630" />
              <mxPoint x="520" y="230" />
              <mxPoint x="930" y="230" />
            </Array>
          </mxGeometry>
        </mxCell>
        <mxCell id="O7KahhrIa4pQh0wzXKCb-112" style="edgeStyle=orthogonalEdgeStyle;rounded=0;orthogonalLoop=1;jettySize=auto;html=1;entryX=1;entryY=0.5;entryDx=0;entryDy=0;entryPerimeter=0;" parent="O7KahhrIa4pQh0wzXKCb-1" source="O7KahhrIa4pQh0wzXKCb-105" target="O7KahhrIa4pQh0wzXKCb-107" edge="1">
          <mxGeometry relative="1" as="geometry">
            <Array as="points">
              <mxPoint x="1795" y="160" />
            </Array>
          </mxGeometry>
        </mxCell>
        <mxCell id="O7KahhrIa4pQh0wzXKCb-113" style="edgeStyle=orthogonalEdgeStyle;rounded=0;orthogonalLoop=1;jettySize=auto;html=1;entryX=1;entryY=0.75;entryDx=0;entryDy=0;exitX=0;exitY=0.25;exitDx=0;exitDy=0;exitPerimeter=0;fillColor=#ffe6cc;strokeColor=#d79b00;dashed=1;" parent="O7KahhrIa4pQh0wzXKCb-1" source="O7KahhrIa4pQh0wzXKCb-107" edge="1">
          <mxGeometry relative="1" as="geometry">
            <mxPoint x="1362" y="120" as="sourcePoint" />
            <mxPoint x="930" y="80" as="targetPoint" />
            <Array as="points">
              <mxPoint x="980" y="140" />
              <mxPoint x="980" y="80" />
            </Array>
          </mxGeometry>
        </mxCell>
        <mxCell id="O7KahhrIa4pQh0wzXKCb-114" style="edgeStyle=orthogonalEdgeStyle;rounded=0;orthogonalLoop=1;jettySize=auto;html=1;entryX=0;entryY=0.5;entryDx=0;entryDy=0;entryPerimeter=0;fillColor=#ffe6cc;strokeColor=#d79b00;dashed=1;" parent="O7KahhrIa4pQh0wzXKCb-1" source="O7KahhrIa4pQh0wzXKCb-5" target="O7KahhrIa4pQh0wzXKCb-107" edge="1">
          <mxGeometry relative="1" as="geometry">
            <Array as="points">
              <mxPoint x="1045" y="160" />
            </Array>
          </mxGeometry>
        </mxCell>
      </root>
    </mxGraphModel>
  </diagram>
</mxfile>
